<?xml version="1.0" encoding="utf-8"?>
<!-- Generator: Adobe Illustrator 26.0.1, SVG Export Plug-In . SVG Version: 6.00 Build 0)  -->
<svg version="1.1" id="Layer_1" xmlns="http://www.w3.org/2000/svg" xmlns:xlink="http://www.w3.org/1999/xlink" x="0px" y="0px"
	 viewBox="0 0 512 512" style="enable-background:new 0 0 512 512;" xml:space="preserve">
<style type="text/css">
	.st0{fill:none;}
	.st1{fill:#4d8c40;}
	.st2{fill:none;stroke:#4d8c40;stroke-width:0;stroke-linecap:round;stroke-linejoin:round;}
</style>
<g>
</g>
<g>
	<path class="st0" d="M228.92,302.02c-6.05,6.49-9.48,14.75-9.79,23.47c8.67-0.92,16.68-4.92,22.73-11.41
		c6.05-6.49,9.48-14.75,9.79-23.47C242.97,291.53,234.97,295.53,228.92,302.02z"/>
	<path class="st0" d="M241.84,260.58c-6.05-6.48-14.06-10.48-22.74-11.39c0.32,8.72,3.76,16.98,9.81,23.46
		c6.05,6.48,14.06,10.47,22.74,11.39C251.33,275.32,247.89,267.06,241.84,260.58L241.84,260.58z"/>
	<path class="st0" d="M280.86,272.2c5.9-6.62,9.16-14.96,9.28-23.68c-8.65,1.11-16.57,5.28-22.47,11.9
		c-5.9,6.62-9.16,14.96-9.28,23.68C267.04,283,274.96,278.82,280.86,272.2z"/>
	<path class="st0" d="M265.65,156.1c-2.15-3.57-5.8-5.69-9.75-5.69c-3.95,0-7.6,2.13-9.75,5.7l-38.77,64.26l-85.1,141.23h92.88
		h81.66h92.57l-83.68-139.07L265.65,156.1z M293.84,328.87c-10.52-0.27-20.4-4.6-27.81-12.19v0c-5.75-5.89-9.49-13.22-10.89-21.12
		c-1.24,7.88-4.8,15.24-10.38,21.22c-7.24,7.76-17.02,12.32-27.53,12.82l-2.03,0.1l-0.04-2.03c-0.23-10.52,3.63-20.59,10.87-28.35
		c5.74-6.16,13.08-10.28,21.11-11.99c-8.03-1.69-15.38-5.82-21.12-11.97c-7.25-7.76-11.12-17.82-10.9-28.34l0.04-2.03l2.03,0.1
		c10.51,0.5,20.29,5.04,27.54,12.8c5.35,5.73,8.85,12.71,10.23,20.21c1.23-7.48,4.56-14.49,9.75-20.3
		c7.07-7.92,16.74-12.69,27.24-13.42l2.03-0.14l0.09,2.03c0.46,10.51-3.18,20.67-10.25,28.59h0c-5.6,6.28-12.85,10.57-20.85,12.44
		c8.07,1.52,15.5,5.48,21.38,11.5c7.42,7.6,11.5,17.58,11.51,28.1l0,2.03L293.84,328.87z"/>
	<path class="st0" d="M196.41,227.07c-6.26-8.9-11.8-16.77-17.92-25.45l-3.87-5.49c-1.71-2.43-4.38-3.82-7.35-3.82
		s-5.64,1.39-7.34,3.81L53.54,347.45c-1.96,2.79-2.2,6.27-0.62,9.3c1.57,3.03,4.55,4.84,7.96,4.84h54.42
		c0.22-0.63,0.65-1.2,1.14-1.81L196.41,227.07z"/>
	<path class="st0" d="M258.54,290.67c0.51,8.71,4.13,16.89,10.32,23.24v0c6.19,6.35,14.29,10.16,22.98,10.89
		c-0.51-8.71-4.13-16.89-10.33-23.24C275.32,295.21,267.23,291.39,258.54,290.67z"/>
	<path class="st0" d="M119.99,360.12c-1.03-0.82-2.29-0.8-3.23-0.32l2.24,1.79h1.99C120.83,361.05,120.51,360.53,119.99,360.12z"/>
	<path class="st0" d="M395.61,360.22L395.61,360.22L395.61,360.22c0.21,0.32,0.37,0.63,0.5,0.86c0.1,0.18,0.19,0.35,0.27,0.5h54.75
		c3.41,0,6.39-1.81,7.96-4.84c1.57-3.03,1.34-6.51-0.62-9.3l-106.4-151.33c-1.7-2.42-4.38-3.81-7.34-3.81
		c-2.96,0-5.64,1.39-7.34,3.81l-3.87,5.49c-6.15,8.73-11.72,16.65-18.03,25.61l79.62,132.31C395.29,359.76,395.46,360,395.61,360.22
		z"/>
	<path class="st1" d="M284.35,298.79c-5.88-6.02-13.31-9.98-21.38-11.5c-2.09,0.49-4.22,0.82-6.39,0.98l-0.96,0.07l0,0.1
		c0.05,2.41-0.12,4.79-0.49,7.13c1.4,7.9,5.14,15.23,10.89,21.12v0c7.41,7.6,17.29,11.93,27.81,12.19l2.03,0.05l0-2.03
		C295.86,316.36,291.77,306.38,284.35,298.79z M268.86,313.91L268.86,313.91c-6.19-6.35-9.81-14.53-10.32-23.24
		c8.69,0.72,16.79,4.54,22.98,10.88c6.2,6.35,9.82,14.53,10.33,23.24C283.15,324.07,275.05,320.26,268.86,313.91z"/>
	<path class="st1" d="M255.6,287.38l0.02,0.95l0.96-0.07c2.17-0.15,4.31-0.49,6.39-0.98c7.99-1.88,15.24-6.17,20.85-12.44h0
		c7.07-7.92,10.71-18.07,10.25-28.59l-0.09-2.03l-2.03,0.14c-10.5,0.73-20.17,5.5-27.24,13.42c-5.19,5.81-8.52,12.83-9.75,20.3
		c0.49,2.66,0.72,5.38,0.66,8.13L255.6,287.38z M267.67,260.43c5.9-6.62,13.82-10.79,22.47-11.9c-0.12,8.72-3.37,17.06-9.28,23.68
		c-5.9,6.61-13.82,10.79-22.47,11.9C258.51,275.38,261.76,267.04,267.67,260.43z"/>
	<path class="st1" d="M255.58,286.39l0.02,0.99l0.02-1.16c0.06-2.75-0.17-5.47-0.66-8.13c-1.38-7.5-4.88-14.49-10.23-20.21
		c-7.25-7.76-17.03-12.3-27.54-12.8l-2.03-0.1l-0.04,2.03c-0.22,10.52,3.65,20.59,10.9,28.34c5.75,6.15,13.09,10.27,21.12,11.97
		c2.1-0.44,4.24-0.73,6.41-0.84L255.58,286.39z M228.91,272.66c-6.05-6.48-9.5-14.74-9.81-23.46c8.68,0.91,16.69,4.91,22.74,11.39h0
		c6.05,6.48,9.49,14.74,9.81,23.46C242.97,283.13,234.96,279.14,228.91,272.66z"/>
	<path class="st1" d="M255.62,288.33l-0.02-0.95l-0.02-0.99l-2.03,0.1c-2.18,0.1-4.32,0.39-6.41,0.84
		c-8.03,1.7-15.37,5.83-21.11,11.99c-7.24,7.76-11.1,17.83-10.87,28.35l0.04,2.03l2.03-0.1c10.51-0.5,20.29-5.06,27.53-12.82
		c5.58-5.99,9.14-13.34,10.38-21.22c0.37-2.34,0.54-4.72,0.49-7.13L255.62,288.33z M241.86,314.08
		c-6.05,6.49-14.05,10.49-22.73,11.41c0.31-8.72,3.74-16.98,9.79-23.47c6.05-6.48,14.05-10.49,22.73-11.41
		C251.34,299.33,247.91,307.59,241.86,314.08z"/>
	<path class="st1" d="M463.32,344.03L356.93,192.7c-2.79-3.97-7.35-6.34-12.21-6.34s-9.42,2.37-12.2,6.34l-3.87,5.49
		c-5.66,8.03-10.82,15.37-16.52,23.47l3.35,5.57c6.31-8.96,11.88-16.88,18.03-25.61l3.87-5.49c1.7-2.42,4.38-3.81,7.34-3.81
		c2.96,0,5.64,1.39,7.34,3.81l106.4,151.33c1.96,2.79,2.2,6.27,0.62,9.3c-1.57,3.03-4.55,4.84-7.96,4.84h-54.75
		c0.02,0.04,0.05,0.1,0.07,0.14c1.45,2.78-0.93,4.17-1.03,4.23l-4.05-1.1l-1.96-3.26h-92.57v5.94h154.29
		c5.59,0,10.66-3.08,13.24-8.04C466.94,354.53,466.54,348.61,463.32,344.03z"/>
	<path class="st1" d="M121.02,363.2c0.13-0.51,0.13-1.07-0.02-1.61h-1.99L121.02,363.2z"/>
	<path class="st1" d="M215.17,361.59h-92.88l-0.86,1.43c-1.06,1.76-2.1,2.47-3.47,2.38l-1.8-0.11l-0.73-1.65
		c-0.35-0.79-0.34-1.45-0.12-2.05H60.88c-3.41,0-6.39-1.81-7.96-4.84c-1.57-3.03-1.34-6.51,0.62-9.3l106.4-151.33
		c1.7-2.42,4.38-3.81,7.34-3.81s5.64,1.39,7.35,3.82l3.87,5.49c6.11,8.68,11.66,16.56,17.92,25.45l3.35-5.56
		c-5.66-8.04-10.79-15.33-16.41-23.31l-3.86-5.49c-2.79-3.97-7.35-6.34-12.21-6.34s-9.42,2.37-12.21,6.34L48.67,344.03
		c-3.21,4.57-3.61,10.5-1.03,15.46c2.58,4.96,7.65,8.04,13.24,8.04h154.29h81.66v-5.94H215.17z"/>
	<line class="st2" x1="395.61" y1="360.22" x2="395.61" y2="360.22"/>
	<path class="st1" d="M116.44,359.79c-0.48,0.61-0.92,1.18-1.14,1.81c-0.21,0.61-0.22,1.26,0.12,2.05l0.73,1.65l1.8,0.11
		c1.37,0.09,2.41-0.63,3.47-2.38l0.86-1.43l85.1-141.23l38.77-64.26c2.15-3.57,5.8-5.7,9.75-5.7c3.95,0,7.6,2.13,9.75,5.69
		l40.07,66.42l83.68,139.07l1.96,3.26l4.05,1.1c0.1-0.06,2.48-1.45,1.03-4.23c-0.02-0.04-0.05-0.09-0.07-0.14
		c-0.08-0.15-0.17-0.32-0.27-0.5c-0.13-0.24-0.29-0.54-0.5-0.86c-0.15-0.23-0.32-0.46-0.51-0.69l-79.62-132.31l-3.35-5.57l-1.33-2.2
		l-40.07-66.42c-3.24-5.36-8.78-8.57-14.84-8.57c0,0,0,0,0,0c-6.05,0-11.6,3.2-14.84,8.57l-38.77,64.26l-2.54,4.21l-3.35,5.56
		L116.44,359.79z M121.02,363.2l-2.01-1.61l-2.24-1.79c0.93-0.48,2.2-0.5,3.23,0.32c0.52,0.41,0.84,0.93,1,1.47
		C121.15,362.13,121.15,362.69,121.02,363.2z"/>
</g>
</svg>
